<svg width="32" height="34" viewBox="0 0 32 34" fill="none" xmlns="http://www.w3.org/2000/svg">
<path d="M6.43556 14.8385C8.99556 19.9185 13.12 24.065 18.1511 26.6679L22.0622 22.7187C22.5422 22.2341 23.2533 22.0725 23.8756 22.2879C25.8667 22.9521 28.0178 23.3111 30.2222 23.3111C31.2 23.3111 32 24.1189 32 25.1062V31.3709C32 32.3582 31.2 33.166 30.2222 33.166C13.5289 33.166 0 19.5056 0 2.65003C0 1.66275 0.8 0.85498 1.77778 0.85498H8C8.97778 0.85498 9.77778 1.66275 9.77778 2.65003C9.77778 4.89385 10.1333 7.04792 10.7911 9.05838C10.9867 9.68665 10.8444 10.3867 10.3467 10.8893L6.43556 14.8385Z" fill="#FD7E14"/>
</svg>
